HIERARCHY
ROOT Hips
{
	OFFSET 0.000000 0.000000 0.000000
	CHANNELS 6 Xposition Yposition Zposition Xrotation Yrotation Zrotation
	JOINT Chest
	{
		OFFSET 0.000000 0.009282 11.569106
		CHANNELS 3 Xrotation Yrotation Zrotation
		JOINT Chest2
		{
			OFFSET 0.000000 -0.016863 9.269641
			CHANNELS 3 Xrotation Yrotation Zrotation
			JOINT Chest3
			{
				OFFSET 0.000000 -0.000000 8.374491
				CHANNELS 3 Xrotation Yrotation Zrotation
				JOINT Chest4
				{
					OFFSET 0.000000 -0.000000 8.374493
					CHANNELS 3 Xrotation Yrotation Zrotation
					JOINT Neck
					{
						OFFSET 0.000000 -0.000001 12.152554
						CHANNELS 3 Xrotation Yrotation Zrotation
						JOINT Head
						{
							OFFSET 0.000000 -0.040100 7.802319
							CHANNELS 3 Xrotation Yrotation Zrotation
							End Site
							{
								OFFSET 0.000000 -0.020946 14.853096
							}
						}
					}
					JOINT RightCollar
					{
						OFFSET -2.894404 -0.000000 6.791374
						CHANNELS 3 Xrotation Yrotation Zrotation
						JOINT RightShoulder
						{
							OFFSET -13.574684 0.000000 0.000000
							CHANNELS 3 Xrotation Yrotation Zrotation
							JOINT RightElbow
							{
								OFFSET -23.923903 0.000000 0.000000
								CHANNELS 3 Xrotation Yrotation Zrotation
								JOINT RightWrist
								{
									OFFSET -19.846718 -0.012765 0.000000
									CHANNELS 3 Xrotation Yrotation Zrotation
									End Site
									{
										OFFSET -14.973145 0.000000 0.000000
									}
								}
							}
						}
					}
					JOINT LeftCollar
					{
						OFFSET 2.894404 -0.000000 6.791374
						CHANNELS 3 Xrotation Yrotation Zrotation
						JOINT LeftShoulder
						{
							OFFSET 13.574684 0.000000 0.000000
							CHANNELS 3 Xrotation Yrotation Zrotation
							JOINT LeftElbow
							{
								OFFSET 23.923903 0.000000 0.000000
								CHANNELS 3 Xrotation Yrotation Zrotation
								JOINT LeftWrist
								{
									OFFSET 19.846718 -0.012765 0.000000
									CHANNELS 3 Xrotation Yrotation Zrotation
									End Site
									{
										OFFSET 14.973145 0.000000 0.000000
									}
								}
							}
						}
					}
				}
			}
		}
	}
	JOINT RightHip
	{
		OFFSET -9.469263 -0.004642 0.045487
		CHANNELS 3 Xrotation Yrotation Zrotation
		JOINT RightKnee
		{
			OFFSET 0.000000 -0.002666 -40.478676
			CHANNELS 3 Xrotation Yrotation Zrotation
			JOINT RightAnkle
			{
				OFFSET 0.000000 -0.049110 -35.224068
				CHANNELS 3 Xrotation Yrotation Zrotation
				JOINT RightToe
				{
					OFFSET 0.000000 -12.539530 -6.151390
					CHANNELS 3 Xrotation Yrotation Zrotation
					End Site
					{
						OFFSET 0.000000 -5.044995 -1.291870
					}
				}
			}
		}
	}
	JOINT LeftHip
	{
		OFFSET 9.469263 -0.004642 0.045487
		CHANNELS 3 Xrotation Yrotation Zrotation
		JOINT LeftKnee
		{
			OFFSET 0.000000 -0.002666 -40.478676
			CHANNELS 3 Xrotation Yrotation Zrotation
			JOINT LeftAnkle
			{
				OFFSET 0.000000 -0.049110 -35.224068
				CHANNELS 3 Xrotation Yrotation Zrotation
				JOINT LeftToe
				{
					OFFSET 0.000000 -12.539530 -6.151390
					CHANNELS 3 Xrotation Yrotation Zrotation
					End Site
					{
						OFFSET 0.000000 -5.044995 -1.291870
					}
				}
			}
		}
	}
}
MOTION
Frames: 14
Frame Time: 0.016667
0.000000 -0.000004 81.649483 -5.826342 0.000000 -0.000000 11.116424 0.000000 -0.000000 -5.290081 0.000000 -0.000000 -0.000000 0.000000 -0.000000 -0.000000 0.000000 -0.000000 12.665070 0.000000 -0.000000 0.575450 0.000000 -0.000000 -0.000000 0.000000 -0.000000 -0.000000 0.000000 -0.000000 0.000000 -0.000000 2.337306 0.000000 0.000000 -2.337305 -0.000000 0.000000 -0.000000 -0.000000 0.000000 -0.000000 0.000000 0.000000 -2.337306 0.000000 -0.000000 2.337305 8.578828 -0.000001 0.000000 1.905768 -0.000000 0.000000 -4.658254 0.000000 0.000000 -0.000000 -0.000000 -0.000000 8.578828 -0.000001 0.000000 1.905768 -0.000000 0.000000 -4.658254 -0.000000 -0.000000 -0.000000 -0.000000 -0.000000 
-16.314514 -3.328943 82.919952 0.692414 -0.095294 -114.629808 0.610760 0.404286 0.328152 0.273105 0.202780 0.233024 0.273105 0.202780 0.233025 0.204906 0.151981 0.174857 16.520667 0.293868 -0.132325 -5.504560 0.582380 -0.136909 -3.819931 -10.611559 -1.857149 19.782357 -74.806820 17.582992 16.585550 1.870805 3.786240 -4.868901 22.820449 17.682040 -1.087499 10.780171 -2.564660 36.869962 70.849552 -28.804318 8.866935 -0.849342 -7.118202 -3.274003 -13.094936 -20.883612 2.078874 -1.935275 -9.671992 2.006459 -1.649994 -2.414458 -3.820459 1.445295 3.540514 0.200445 -0.134341 0.014910 4.548100 4.201447 11.147053 2.394973 2.014582 6.563586 -7.143354 -5.008734 10.522639 -0.066938 0.164047 -0.094887 
-16.282185 -3.254898 82.918365 0.681687 0.000938 -114.463432 0.679380 0.417796 0.306405 0.302007 0.206700 0.226720 0.302007 0.206700 0.226722 0.226582 0.154912 0.170144 16.517706 0.274254 -0.161200 -5.509886 0.556885 -0.196461 -3.804423 -10.598073 -1.860953 20.030471 -74.732460 17.925125 16.469331 1.877321 3.759346 -4.897512 22.855790 17.702742 -1.073034 10.775169 -2.605412 37.076886 70.743903 -29.081976 9.041562 -0.766880 -7.403782 -3.327098 -13.126485 -20.984899 2.199077 -1.942422 -9.955923 1.968862 -1.683002 -2.313451 -3.870573 1.525686 3.530890 0.212332 -0.112371 0.011609 4.597880 4.196159 11.090397 2.441587 1.979624 6.521677 -7.138930 -4.969674 10.526107 -0.056849 0.163403 -0.095231 
-16.250183 -3.187879 82.919136 0.671138 0.090935 -114.291707 0.737675 0.425794 0.285469 0.327504 0.206585 0.217845 0.327504 0.206585 0.217846 0.245701 0.154822 0.163496 16.531115 0.258676 -0.194077 -5.484798 0.540131 -0.261946 -3.780958 -10.580820 -1.861305 20.144639 -74.661713 18.102774 16.407740 1.872090 3.801687 -4.934469 22.894746 17.728707 -1.058322 10.775927 -2.640197 37.383671 70.626861 -29.470535 9.229698 -0.705298 -7.601819 -3.306127 -13.126521 -21.027344 2.323958 -1.941088 -10.187064 1.933467 -1.724025 -2.311152 -3.924815 1.588367 3.609265 0.214834 -0.088822 0.007845 4.639610 4.180250 11.078496 2.487448 1.948355 6.437053 -7.123598 -4.926237 10.448556 -0.052452 0.159921 -0.093639 
-16.222738 -3.117539 82.920944 0.660196 0.173386 -114.117346 0.783941 0.424013 0.261605 0.347031 0.204350 0.208214 0.347031 0.204349 0.208212 0.260342 0.153144 0.156276 16.565128 0.248006 -0.228256 -5.421446 0.532715 -0.328140 -3.751024 -10.557724 -1.859539 20.091066 -74.604729 18.091884 16.408901 1.852429 3.873565 -4.994379 22.927251 17.772140 -1.053971 10.792033 -2.664002 37.729432 70.502879 -29.894935 9.429582 -0.660158 -7.724096 -3.245127 -13.088246 -21.003134 2.436356 -1.955935 -10.381129 1.893718 -1.748165 -2.326705 -3.970015 1.644874 3.658005 0.214290 -0.067167 0.004013 4.675138 4.172722 11.071635 2.533181 1.913257 6.341522 -7.105039 -4.879496 10.468431 -0.055460 0.149488 -0.089156 
-16.193153 -3.050642 82.921944 0.641849 0.242091 -113.940219 0.814050 0.418749 0.235486 0.360340 0.201114 0.197159 0.360340 0.201114 0.197159 0.270320 0.150720 0.147988 16.618182 0.240540 -0.263309 -5.322712 0.531356 -0.394866 -3.737958 -10.542090 -1.850505 19.871868 -74.565476 17.882472 16.454629 1.826892 3.958326 -5.058445 22.972477 17.807763 -1.065864 10.820463 -2.680031 38.052627 70.383440 -30.279311 9.659175 -0.626477 -7.789844 -3.186888 -13.009729 -20.938286 2.538217 -1.972631 -10.560517 1.848283 -1.760782 -2.285813 -4.012955 1.700134 3.639114 0.213409 -0.053557 0.005094 4.696153 4.157872 11.027828 2.577436 1.875148 6.274292 -7.086432 -4.818294 10.445460 -0.055632 0.137889 -0.088758 
-16.165091 -2.986308 82.922104 0.621255 0.306365 -113.771595 0.839208 0.413125 0.208877 0.371226 0.198438 0.186350 0.371226 0.198438 0.186353 0.278480 0.148714 0.139884 16.683461 0.233267 -0.295092 -5.201287 0.529099 -0.455612 -3.750738 -10.535804 -1.847045 19.568174 -74.545743 17.559235 16.526293 1.796746 4.043370 -5.095043 23.010344 17.824135 -1.083100 10.854659 -2.691737 38.320889 70.274150 -30.602710 9.905945 -0.606646 -7.809841 -3.142863 -12.912653 -20.868091 2.620246 -1.990822 -10.713992 1.819080 -1.778052 -2.233124 -4.057710 1.762504 3.509786 0.212762 -0.039889 0.003887 4.708575 4.153605 10.946030 2.624188 1.835376 6.269700 -7.072064 -4.755903 10.397567 -0.056906 0.124354 -0.087828 
-16.133596 -2.925812 82.922585 0.601388 0.373189 -113.620798 0.862116 0.407689 0.189867 0.381999 0.196146 0.178740 0.381999 0.196146 0.178741 0.286555 0.146997 0.134177 16.756104 0.226198 -0.323291 -5.066209 0.525865 -0.509767 -3.761733 -10.531803 -1.839285 19.213213 -74.547171 17.180414 16.609091 1.763235 4.111652 -5.135185 23.049486 17.849309 -1.082821 10.885289 -2.714219 38.552101 70.183698 -30.894916 10.140299 -0.598670 -7.801019 -3.090448 -12.821187 -20.802581 2.709865 -1.993249 -10.848640 1.785155 -1.803060 -2.217669 -4.098678 1.808130 3.477085 0.212175 -0.023777 0.004252 4.726155 4.148395 10.841198 2.660097 1.804794 6.316010 -7.051405 -4.693677 10.353919 -0.059261 0.111318 -0.088663 
-16.105225 -2.870375 82.923157 0.583717 0.441528 -113.492807 0.897803 0.402074 0.174078 0.397628 0.193733 0.174190 0.397628 0.193733 0.174192 0.298276 0.145186 0.130769 16.820767 0.219751 -0.345841 -4.945981 0.521761 -0.553371 -3.784204 -10.521265 -1.822494 18.992249 -74.570243 16.942923 16.669348 1.737178 4.157938 -5.172453 23.083536 17.875532 -1.120929 10.912707 -2.715931 38.811573 70.109802 -31.185701 10.360327 -0.609456 -7.780502 -3.026714 -12.748175 -20.747584 2.793875 -1.997644 -10.975544 1.755483 -1.827777 -2.226724 -4.136585 1.846129 3.475508 0.212481 -0.004351 0.002693 4.752190 4.144975 10.749926 2.689356 1.777233 6.365642 -7.029931 -4.633065 10.276407 -0.063567 0.099854 -0.089789 
-16.074804 -2.811952 82.923317 0.570772 0.507830 -113.391215 0.936443 0.389517 0.162439 0.414512 0.189008 0.169856 0.414512 0.189008 0.169855 0.310936 0.141641 0.127521 16.878174 0.218734 -0.361869 -4.839252 0.525265 -0.583165 -3.808429 -10.507875 -1.798769 18.992581 -74.590051 16.912602 16.685459 1.721347 4.192508 -5.185652 23.091083 17.889748 -1.144550 10.941009 -2.711832 39.018829 70.076525 -31.421947 10.555897 -0.634988 -7.761345 -2.951630 -12.706584 -20.708551 2.873300 -2.005124 -11.077427 1.736589 -1.844881 -2.238022 -4.177675 1.875532 3.501027 0.211847 0.011780 0.001575 4.775638 4.141704 10.684509 2.718058 1.750981 6.404018 -7.009658 -4.571930 10.286839 -0.065989 0.085583 -0.087926 
-16.044172 -2.760929 82.924026 0.554800 0.578977 -113.299936 0.981779 0.386997 0.154289 0.434671 0.187967 0.167947 0.434671 0.187967 0.167944 0.326055 0.140856 0.126093 16.924179 0.211219 -0.375070 -4.753734 0.515967 -0.610032 -3.816499 -10.512425 -1.781043 19.092604 -74.610220 17.005303 16.685104 1.702492 4.221622 -5.160959 23.090149 17.886934 -1.142891 10.939130 -2.723914 39.182627 70.075767 -31.628830 10.732521 -0.662159 -7.741946 -2.897663 -12.689274 -20.688844 2.947775 -2.010267 -11.179733 1.721900 -1.851431 -2.238627 -4.214494 1.899158 3.533557 0.212133 0.024707 0.000704 4.814245 4.129812 10.626405 2.737305 1.732473 6.431200 -6.984215 -4.511134 10.149344 -0.070191 0.079204 -0.090014 
-16.013067 -2.709006 82.925941 0.541889 0.648670 -113.220446 1.031750 0.384313 0.150970 0.456968 0.187157 0.166928 0.456968 0.187157 0.166928 0.342777 0.140243 0.125335 16.957224 0.197382 -0.386197 -4.692319 0.494463 -0.635255 -3.801838 -10.512441 -1.778307 19.263700 -74.639768 17.203570 16.709192 1.687613 4.242258 -5.141131 23.077763 17.874518 -1.158396 10.938385 -2.739695 39.320340 70.081006 -31.772619 10.879498 -0.678427 -7.737301 -2.856485 -12.681726 -20.673125 3.015191 -2.017525 -11.307681 1.721312 -1.853914 -2.237372 -4.250566 1.916669 3.592890 0.206382 0.036329 -0.001678 4.846092 4.134564 10.588822 2.752023 1.705648 6.462310 -6.951084 -4.464510 10.072038 -0.075994 0.077289 -0.088726 
-15.984001 -2.663306 82.928146 0.527117 0.714116 -113.149167 1.078387 0.378226 0.139938 0.477661 0.185087 0.163607 0.477661 0.185087 0.163609 0.358295 0.138687 0.122850 16.979912 0.185303 -0.390124 -4.650198 0.473700 -0.646706 -3.798712 -10.508442 -1.770665 19.448511 -74.687647 17.403846 16.752323 1.689115 4.248938 -5.106467 23.053266 17.852272 -1.153402 10.945102 -2.752093 39.374111 70.100485 -31.823340 11.004038 -0.680388 -7.747829 -2.820288 -12.664402 -20.662979 3.076571 -2.028073 -11.469563 1.715367 -1.849313 -2.222752 -4.281671 1.928196 3.619374 0.202699 0.047658 -0.005106 4.876704 4.146107 10.573027 2.761766 1.669192 6.499405 -6.916748 -4.420492 10.029157 -0.082088 0.083090 -0.088735 
-15.953033 -2.617234 82.929924 0.512177 0.772458 -113.090229 1.118705 0.368222 0.127219 0.495570 0.182562 0.159934 0.495570 0.182562 0.159933 0.371725 0.136792 0.120094 16.997131 0.177305 -0.391273 -4.618233 0.459432 -0.651643 -3.794107 -10.504277 -1.761846 19.604115 -74.752698 17.571042 16.792082 1.697855 4.253774 -5.052554 23.023649 17.822178 -1.145518 10.955276 -2.751089 39.357199 70.122806 -31.777988 11.130012 -0.665196 -7.771673 -2.800356 -12.634854 -20.649885 3.136540 -2.037555 -11.678178 1.701220 -1.840287 -2.185525 -4.308499 1.926751 3.714996 0.200801 0.059754 -0.007178 4.896922 4.156304 10.582304 2.776908 1.634668 6.526642 -6.886073 -4.389112 9.964052 -0.086386 0.095023 -0.087487 
